<?xml version="1.0" standalone="no"?>
<!DOCTYPE svg PUBLIC "-//W3C//DTD SVG 20010904//EN"
 "http://www.w3.org/TR/2001/REC-SVG-20010904/DTD/svg10.dtd">
<svg version="1.0" xmlns="http://www.w3.org/2000/svg"
 width="1600.000000pt" height="1142.000000pt" viewBox="0 0 1600.000000 1142.000000"
 preserveAspectRatio="xMidYMid meet">

<g transform="translate(0.000000,1142.000000) scale(0.100000,-0.100000)"
fill="#000000" stroke="none">
<path d="M2102 8572 c2 -5 59 -59 128 -122 69 -63 145 -135 170 -160 l45 -45
-5 -1401 -5 -1401 -60 -51 c-33 -29 -105 -89 -160 -134 -55 -45 -110 -92 -122
-105 l-22 -23 617 0 617 0 -46 43 c-25 23 -98 88 -162 145 l-117 103 0 415 0
416 88 104 c48 58 116 140 152 183 36 43 88 105 116 137 28 33 78 90 109 128
96 114 86 110 116 47 l27 -55 -40 -50 c-22 -28 -57 -71 -78 -96 -21 -25 -87
-103 -145 -175 -59 -71 -126 -152 -149 -179 -22 -26 -44 -53 -48 -60 -4 -6 -8
-200 -8 -430 l0 -419 37 -46 c21 -25 40 -48 44 -51 3 -3 39 -45 79 -95 41 -49
76 -92 79 -95 14 -12 91 -108 91 -114 0 -3 -31 -6 -69 -6 -72 0 -81 -6 -81
-51 0 -18 9 -19 161 -19 125 0 159 3 153 13 -13 20 -93 118 -134 161 -21 23
-59 68 -85 101 -26 33 -55 67 -64 75 -9 8 -44 49 -79 91 l-62 76 0 379 0 379
55 65 c30 36 85 103 121 150 37 47 72 90 78 95 7 6 39 44 71 85 33 41 72 88
86 104 l26 28 327 -652 c179 -359 326 -658 326 -665 0 -7 -24 -28 -52 -48 -29
-19 -64 -44 -78 -55 -14 -12 -65 -51 -115 -87 -49 -37 -92 -69 -94 -71 -2 -2
308 -4 689 -4 l693 0 -34 26 c-19 14 -79 55 -134 90 -55 36 -139 90 -187 122
l-88 57 -86 170 c-48 93 -119 232 -158 308 -39 76 -138 269 -221 430 -180 351
-264 515 -369 719 -44 84 -95 183 -114 220 l-34 68 38 47 c22 26 46 55 54 63
8 8 44 51 79 95 35 44 71 87 80 95 9 8 57 64 106 124 143 175 441 470 540 535
22 14 45 31 50 38 6 6 26 20 45 30 19 10 53 30 75 44 56 36 165 86 241 111 37
12 64 27 64 34 0 12 -117 14 -705 14 -570 0 -705 -2 -705 -13 0 -7 26 -22 58
-32 85 -29 131 -58 194 -122 42 -42 63 -74 78 -115 20 -57 20 -63 -4 -174 -13
-61 -105 -210 -182 -294 -18 -19 -51 -60 -75 -90 -23 -30 -54 -66 -67 -80 -14
-14 -50 -56 -80 -95 -31 -38 -63 -77 -71 -86 -9 -9 -32 -36 -53 -60 -20 -24
-60 -72 -90 -107 -29 -35 -80 -96 -113 -137 -33 -40 -81 -97 -107 -126 -25
-30 -70 -83 -100 -119 l-53 -65 -3 460 c-2 253 0 548 3 655 l7 195 136 133
135 133 -20 27 c-11 15 -22 27 -25 27 -3 0 -72 -65 -154 -143 l-149 -144 -3
-716 -4 -717 -33 -40 c-18 -22 -49 -58 -69 -80 l-36 -40 0 806 0 807 43 35
c23 20 107 98 185 175 l144 139 -414 6 c-552 9 -840 9 -836 -1z"/>
<path d="M5840 8566 c0 -2 34 -30 76 -62 42 -33 108 -85 147 -116 40 -31 98
-76 129 -100 l57 -43 1 -572 0 -571 -77 -7 c-140 -12 -238 -53 -322 -135 -79
-78 -98 -106 -145 -213 -32 -75 -17 -81 53 -18 92 83 336 163 445 147 l46 -7
0 -42 c0 -66 -9 -87 -36 -87 -80 0 -311 -79 -386 -132 -27 -19 -27 -20 -11
-46 9 -15 18 -28 18 -30 1 -1 31 13 66 31 92 48 201 85 285 96 l54 8 0 -598
c0 -495 -2 -599 -14 -606 -7 -4 -29 -20 -47 -35 -19 -15 -57 -44 -85 -65 -186
-137 -253 -189 -253 -195 -1 -5 675 -8 1500 -8 l1502 0 -70 73 c-54 57 -174
203 -241 292 -4 6 -28 51 -54 101 -43 83 -85 196 -132 357 -9 31 -19 57 -21
57 -2 0 -22 -35 -46 -77 -23 -43 -46 -79 -50 -81 -5 -2 -9 -9 -9 -15 0 -7 -13
-31 -28 -54 -15 -23 -43 -68 -62 -100 -19 -32 -57 -82 -84 -111 -49 -52 -168
-133 -216 -147 -14 -4 -29 -11 -35 -15 -5 -3 -46 -14 -90 -23 -163 -34 -303
-47 -499 -47 l-196 0 1 650 0 650 296 0 297 0 -34 35 -34 35 -298 0 -298 0 0
-687 0 -688 -80 3 -80 4 0 702 c0 387 3 724 6 750 l7 46 357 0 358 0 46 -64
c25 -36 52 -70 59 -78 7 -7 28 -34 46 -61 18 -26 40 -55 50 -65 10 -9 31 -37
48 -62 17 -25 44 -60 61 -79 l30 -34 7 384 c3 211 5 470 3 574 l-3 190 -35
-50 c-19 -27 -40 -56 -47 -65 -6 -8 -41 -55 -77 -105 -36 -49 -75 -103 -87
-118 -12 -16 -39 -52 -59 -80 l-36 -52 -247 -3 -247 -2 0 509 0 509 145 7
c206 10 488 1 548 -18 26 -8 47 -13 47 -11 0 14 147 -79 260 -165 122 -93 117
-90 96 -56 -67 106 -154 196 -234 243 -38 21 -123 49 -212 68 -71 15 -132 18
-375 18 -159 0 -302 -4 -317 -7 l-28 -7 0 -545 0 -545 -80 0 -80 0 0 614 0
614 108 8 c59 4 206 7 327 7 254 0 429 -18 550 -58 77 -26 167 -79 193 -117 8
-10 22 -26 31 -36 32 -30 91 -122 142 -218 27 -52 49 -96 49 -99 0 -3 8 -21
18 -41 l18 -36 19 48 c74 201 284 574 381 679 12 14 34 40 48 58 l26 34 -692
6 c-746 8 -2168 9 -2168 3z"/>
<path d="M9230 8556 c0 -4 20 -42 106 -201 30 -55 100 -192 155 -305 97 -198
112 -231 139 -295 l12 -30 15 40 c19 54 96 205 104 205 3 0 11 11 17 25 31 67
174 187 282 238 125 58 230 75 530 88 211 10 717 5 729 -7 2 -2 -17 -34 -42
-72 l-47 -67 -418 -1 c-367 0 -428 -2 -507 -19 -115 -24 -202 -63 -279 -125
-103 -84 -172 -184 -219 -322 l-26 -77 29 -31 30 -32 9 24 c4 12 17 48 26 78
36 109 114 237 172 283 13 10 29 24 36 30 20 18 55 37 101 54 74 27 259 61
351 65 110 4 628 -2 633 -7 2 -2 -18 -36 -44 -76 -27 -39 -75 -110 -106 -158
-32 -47 -62 -93 -68 -101 -30 -45 -205 -308 -253 -380 -31 -47 -60 -89 -65
-95 -4 -5 -19 -28 -32 -50 -13 -22 -28 -44 -33 -50 -5 -5 -21 -29 -35 -51 -15
-23 -85 -128 -157 -234 -71 -105 -142 -210 -157 -233 -14 -23 -30 -46 -35 -52
-5 -5 -20 -28 -33 -50 -13 -22 -28 -44 -33 -50 -12 -15 -184 -273 -215 -324
-15 -24 -32 -48 -37 -55 -6 -6 -22 -29 -35 -51 -13 -22 -28 -44 -33 -50 -7 -9
-107 -159 -249 -374 -31 -47 -61 -90 -65 -96 -5 -5 -19 -28 -32 -50 -13 -22
-29 -44 -35 -50 -7 -5 -23 -28 -36 -50 -13 -22 -28 -44 -32 -50 -16 -19 -158
-236 -158 -240 0 -3 686 -5 1525 -5 l1524 0 -47 66 c-121 168 -244 395 -342
629 -23 55 -47 114 -54 130 -7 17 -17 40 -22 52 -8 20 -14 12 -58 -75 -65
-127 -166 -276 -227 -333 -86 -82 -224 -154 -392 -203 -66 -20 -466 -39 -704
-34 l-142 3 111 165 c61 91 140 207 174 257 35 51 64 97 64 102 0 5 3 11 8 13
10 4 312 458 312 469 0 5 4 9 9 9 5 0 22 21 37 48 15 26 30 49 34 52 3 3 17
23 30 45 13 22 28 45 33 50 4 6 27 39 51 75 23 36 91 137 151 225 60 88 137
203 172 255 34 52 68 102 73 110 6 8 36 54 68 101 31 48 98 146 147 220 50 73
107 158 127 188 20 31 41 61 45 66 5 6 20 28 33 50 13 22 28 45 33 50 4 6 47
69 95 141 48 73 124 187 170 254 45 67 82 127 82 133 0 7 -11 25 -23 41 l-23
29 -231 -344 c-126 -189 -273 -409 -326 -489 -53 -80 -100 -149 -104 -155 -10
-12 -292 -434 -345 -514 -20 -31 -41 -60 -45 -66 -5 -5 -20 -28 -33 -50 -13
-22 -26 -42 -30 -45 -5 -5 -304 -449 -352 -523 -14 -23 -30 -46 -35 -52 -5 -5
-20 -28 -33 -50 -13 -22 -28 -44 -33 -50 -4 -5 -34 -49 -65 -96 -31 -48 -102
-153 -157 -234 -55 -81 -112 -166 -127 -188 -14 -23 -31 -48 -37 -57 -6 -8
-44 -64 -84 -125 l-73 -110 -82 -3 c-75 -3 -100 5 -73 23 9 5 167 235 233 338
14 23 30 47 35 52 5 6 20 28 33 50 13 22 27 42 30 45 3 3 17 23 30 45 21 34
72 107 99 140 4 6 10 15 12 21 5 13 242 368 249 374 3 3 17 23 30 45 13 22 27
42 30 45 4 3 19 25 35 49 15 25 31 49 36 55 10 11 286 424 351 524 21 31 42
64 48 72 5 8 68 101 138 205 70 105 167 248 215 318 48 71 87 132 87 138 0 5
3 9 8 9 4 0 16 17 27 37 11 20 25 41 30 47 6 6 55 78 110 160 55 82 130 194
168 249 37 55 76 115 88 133 l21 34 -1456 0 c-801 0 -1456 -2 -1456 -4z"/>
<path d="M12730 8556 c0 -3 57 -55 128 -117 70 -61 153 -136 185 -166 l57 -55
-2 -1396 -3 -1397 -100 -83 c-55 -46 -122 -102 -149 -125 -26 -23 -64 -53 -83
-67 -35 -24 -35 -25 -12 -31 13 -4 296 -7 629 -8 l604 -1 -32 30 c-18 16 -56
48 -85 72 -29 24 -92 76 -140 117 l-87 75 0 1387 0 1388 186 191 186 190 -641
0 c-352 0 -641 -2 -641 -4z"/>
<path d="M13922 8306 l-153 -151 1 -1396 0 -1397 62 -68 c33 -38 85 -94 114
-124 28 -30 82 -89 118 -130 l66 -75 -193 -5 c-150 -4 -181 -7 -140 -13 28 -5
87 -20 130 -33 68 -21 98 -24 226 -24 l149 0 -73 83 c-39 45 -111 125 -159
177 -48 52 -117 129 -154 171 l-66 76 0 1364 0 1364 135 135 c74 74 135 139
135 145 -1 11 -36 56 -42 53 -1 0 -72 -69 -156 -152z"/>
<path d="M8759 8387 c-19 -23 -51 -64 -70 -92 -18 -27 -39 -54 -45 -60 -6 -5
-22 -28 -34 -50 -13 -22 -27 -42 -31 -45 -3 -3 -16 -23 -28 -45 -12 -22 -36
-62 -53 -90 -31 -51 -150 -284 -162 -318 -4 -12 2 -30 15 -48 21 -30 39 -31
39 -2 0 14 84 188 126 260 87 149 247 387 291 432 27 28 29 48 5 78 l-17 22
-36 -42z"/>
<path d="M5329 8376 c-2 -3 -27 -7 -54 -10 -64 -8 -121 -28 -245 -86 -163 -76
-381 -268 -608 -533 -51 -59 -114 -131 -141 -160 -27 -28 -87 -97 -134 -151
l-86 -99 23 -46 c13 -25 193 -388 401 -806 207 -418 418 -842 467 -943 l91
-182 66 -44 c36 -25 129 -88 206 -141 77 -53 171 -117 210 -143 l70 -47 -770
-3 -769 -2 40 -38 40 -37 848 3 849 2 -44 33 c-24 18 -97 69 -162 113 -162
108 -187 125 -242 159 -26 17 -52 35 -59 40 -6 6 -63 45 -126 87 -64 42 -121
86 -127 99 -42 87 -257 527 -393 804 -89 182 -221 449 -292 595 -72 146 -156
317 -188 381 l-57 116 34 39 c19 21 58 64 87 94 28 30 99 109 156 175 225 259
448 465 595 551 105 62 286 123 362 124 l32 0 -17 30 c-15 26 -49 40 -63 26z"/>
<path d="M7970 7276 c0 -132 -3 -399 -7 -592 l-6 -352 41 -21 42 -21 0 598 0
598 -35 16 -35 16 0 -242z"/>
<path d="M11960 5978 c0 -6 6 -24 14 -41 30 -70 51 -122 52 -127 5 -44 231
-442 301 -530 6 -8 34 -45 62 -82 l51 -67 -42 -73 c-23 -40 -47 -76 -52 -80
-6 -4 -701 -8 -1543 -8 -843 0 -1533 -3 -1533 -7 0 -5 12 -20 25 -35 l24 -28
1538 0 1539 0 39 71 c22 39 46 83 54 97 8 15 17 29 21 32 22 16 10 43 -50 120
-165 211 -284 414 -370 632 -42 106 -42 106 -86 121 -25 8 -44 10 -44 5z"/>
<path d="M8520 5906 c0 -21 104 -232 143 -289 14 -21 29 -47 32 -58 4 -10 10
-19 15 -19 4 0 19 -19 33 -42 14 -24 36 -55 48 -69 13 -14 46 -52 73 -85 27
-32 82 -93 123 -135 l74 -75 -31 -55 c-17 -29 -36 -67 -43 -82 l-12 -28 -1467
7 c-1582 8 -1493 10 -1450 -42 l18 -21 1470 -7 1470 -8 16 34 c10 18 31 56 47
83 17 28 39 67 51 87 l20 37 -71 72 c-38 39 -97 104 -131 143 -33 39 -70 82
-82 96 -32 35 -162 231 -178 266 -7 16 -15 31 -19 34 -6 5 -40 77 -52 113 -4
9 -13 17 -22 17 -9 0 -29 7 -45 15 -17 9 -30 14 -30 11z"/>
<path d="M2210 4945 c33 -35 35 -35 118 -35 63 0 101 6 146 22 130 47 129 48
-93 48 l-205 0 34 -35z"/>
<path d="M12870 4925 l34 -35 130 0 129 0 -22 24 c-13 14 -20 29 -16 35 4 8
-39 11 -141 11 l-148 0 34 -35z"/>
<path d="M13215 4949 c52 -10 164 -10 190 1 13 5 -27 8 -105 8 -92 0 -115 -2
-85 -9z"/>
<path d="M13797 4744 c31 -44 53 -61 53 -41 0 16 -39 68 -40 53 0 -5 -8 -2
-17 5 -12 10 -11 5 4 -17z"/>
<path d="M2956 4698 c-83 -95 -145 -164 -219 -243 -43 -46 -87 -95 -98 -109
l-20 -26 41 0 c23 0 39 4 35 9 -3 6 4 8 15 6 22 -4 28 10 8 18 -8 3 -6 6 5 6
9 1 17 6 17 11 0 6 6 10 14 10 17 0 31 17 41 49 4 15 3 21 -3 17 -5 -3 -12 1
-16 9 -3 10 3 17 18 21 17 4 22 11 19 24 -6 21 13 35 30 23 7 -5 24 -10 40
-12 21 -2 27 2 27 18 0 11 -4 23 -10 26 -20 12 -8 42 40 94 28 30 62 82 57 87
-2 2 -21 -15 -41 -38z"/>
<path d="M6785 4726 c-5 -2 -37 -10 -70 -17 -33 -7 -71 -19 -85 -26 -14 -7
-30 -13 -36 -13 -6 0 -17 -6 -23 -13 -8 -11 -5 -16 14 -25 l25 -12 0 -150 0
-150 -34 0 c-23 0 -35 -5 -39 -17 -2 -10 -8 -25 -11 -34 -6 -14 -1 -16 38 -12
38 5 46 3 46 -11 0 -10 -11 -19 -30 -23 -17 -3 -33 -10 -37 -16 -6 -10 13 -7
50 8 16 7 17 -2 17 -98 0 -103 -1 -106 -28 -129 -55 -46 -53 -48 82 -48 69 0
126 4 126 8 0 5 -14 24 -30 42 l-31 34 3 131 3 130 55 7 c30 5 64 9 75 11 29
3 32 -31 3 -38 -35 -9 -61 -13 -80 -14 -16 -1 -18 -14 -18 -129 0 -118 2 -130
21 -148 12 -10 29 -30 39 -44 l18 -25 -134 1 c-74 1 -134 -2 -134 -7 0 -5 71
-9 157 -9 l157 0 -57 58 -58 58 3 114 3 114 54 13 c72 19 65 29 136 -217 7
-25 18 -78 25 -118 12 -72 12 -73 34 -57 11 9 55 32 96 51 58 28 71 38 59 45
-45 24 -195 254 -226 346 l-11 31 56 25 c35 15 74 42 100 70 40 44 42 50 42
109 0 61 -1 62 -49 109 -59 57 -121 79 -231 85 -41 2 -79 2 -85 0z m160 -69
c42 -24 85 -86 85 -124 0 -40 -31 -101 -65 -127 -19 -15 -38 -26 -43 -26 -5 0
-22 -6 -38 -14 -16 -8 -46 -17 -66 -20 l-38 -7 0 146 0 145 58 0 c42 0 72 -7
106 -24 53 -27 58 -13 6 16 -25 13 -56 18 -107 18 l-73 0 0 -150 c0 -143 -1
-150 -20 -150 -19 0 -20 7 -20 160 0 186 -4 179 105 180 54 0 79 -5 110 -23z"/>
<path d="M8518 4710 c-63 -26 -107 -66 -129 -118 -51 -118 7 -232 142 -280 35
-12 73 -22 84 -22 34 0 145 -39 176 -61 63 -45 80 -143 34 -197 -27 -32 -99
-62 -150 -62 -104 0 -206 71 -236 164 l-16 48 -12 -33 c-6 -19 -30 -69 -51
-111 -41 -79 -49 -101 -28 -80 17 17 115 15 179 -4 35 -11 93 -17 164 -18 106
-1 112 0 160 30 28 17 63 49 80 73 26 38 29 50 30 119 0 90 -21 133 -82 174
-47 30 -72 40 -201 74 -121 33 -169 67 -178 124 -8 47 8 83 50 115 46 35 103
42 158 20 56 -22 86 -50 109 -104 11 -24 21 -42 24 -40 2 3 18 38 35 79 18 40
38 80 46 88 21 20 13 24 -22 10 -23 -8 -47 -7 -109 7 -124 27 -201 29 -257 5z"/>
<path d="M11985 4710 c-38 -10 -92 -27 -120 -39 l-50 -22 33 -16 32 -15 0
-149 0 -149 -40 0 c-25 0 -40 -5 -41 -12 0 -7 -2 -22 -4 -33 -4 -18 0 -20 40
-17 35 3 45 1 45 -11 0 -16 -20 -27 -50 -27 -10 0 -22 -5 -26 -11 -7 -12 20
-8 60 7 14 5 16 -7 16 -99 l0 -105 -42 -36 -43 -36 133 0 133 0 -21 30 c-11
16 -25 32 -30 35 -6 4 -10 67 -10 144 l0 138 58 6 c32 4 67 9 77 13 15 6 17 3
13 -19 -4 -18 -1 -27 8 -27 7 0 15 -10 19 -22 3 -13 12 -39 19 -58 31 -81 79
-272 79 -316 l0 -24 31 19 c32 19 65 36 126 66 l35 17 -49 51 c-61 65 -110
139 -162 246 l-42 84 67 32 c81 40 116 76 132 137 28 103 -36 182 -177 221
-76 21 -159 20 -249 -3z m237 -63 c74 -56 88 -150 33 -215 -29 -34 -113 -76
-170 -85 l-40 -6 0 145 0 146 65 -4 c39 -2 82 -12 108 -24 52 -26 54 -23 5 11
-32 21 -49 25 -115 25 l-78 0 0 -150 c0 -127 -2 -150 -15 -150 -13 0 -15 25
-15 164 0 189 -10 173 107 175 66 1 75 -1 115 -32z"/>
<path d="M3413 4686 l39 -34 -4 -304 c-3 -341 -6 -352 -76 -385 l-37 -18 141
-3 c110 -2 145 -6 154 -17 15 -18 23 -17 -135 -17 -67 1 -127 -3 -135 -8 -10
-6 44 -10 148 -10 158 0 162 1 152 19 -5 11 -19 26 -30 34 -11 8 -18 16 -16
18 2 2 -7 5 -20 5 -33 2 -54 21 -75 69 -16 35 -19 70 -19 295 l0 255 20 -30
c18 -28 20 -47 20 -270 0 -222 2 -242 20 -272 11 -18 22 -33 25 -33 3 0 -2 15
-12 33 -15 27 -18 65 -21 257 l-3 225 87 -165 c48 -91 113 -214 145 -275 l57
-110 51 -3 50 -3 3 338 c2 254 6 344 16 361 7 12 31 36 54 52 l41 30 -126 0
-127 0 39 -39 c50 -50 53 -71 49 -306 l-3 -180 -68 135 c-38 74 -88 173 -113
220 -24 47 -44 90 -44 96 0 5 17 20 38 32 20 12 31 22 24 22 -7 0 -30 -10 -52
-22 l-38 -22 75 -146 c42 -80 100 -191 129 -248 33 -61 54 -115 54 -134 0 -20
-4 -28 -9 -22 -5 5 -67 122 -137 259 -69 138 -130 254 -135 260 -18 19 -8 42
28 68 l38 27 -150 0 -150 0 38 -34z"/>
<path d="M4435 4685 c25 -33 26 -38 14 -73 -7 -20 -14 -39 -14 -42 -1 -3 -9
-22 -18 -44 -9 -21 -17 -42 -17 -47 0 -4 -5 -19 -11 -33 l-12 -24 -26 24 c-39
36 -50 29 -13 -9 30 -31 41 -57 25 -57 -4 0 -21 14 -39 30 l-31 31 -25 -50
c-25 -51 -25 -51 -4 -57 12 -3 33 -10 47 -15 l27 -10 -29 -74 c-56 -146 -105
-218 -190 -277 -23 -16 -18 -17 124 -18 l148 0 -36 46 c-24 32 -35 57 -35 80
0 37 47 191 61 200 19 12 21 -31 4 -80 -12 -30 -19 -79 -20 -121 0 -62 3 -74
29 -108 16 -21 26 -40 23 -43 -3 -4 -69 -6 -146 -6 -82 1 -141 -3 -141 -9 0
-5 69 -9 166 -9 l166 0 -29 38 c-43 57 -63 97 -63 127 0 35 38 165 49 165 11
0 44 -39 70 -82 21 -36 41 -49 41 -28 0 14 101 120 110 115 4 -3 11 -17 15
-32 3 -16 12 -41 20 -58 7 -16 20 -50 30 -75 l17 -45 -42 -37 -43 -38 147 0
c82 0 146 4 146 9 0 5 -16 19 -35 31 -20 13 -42 38 -51 58 -33 78 -94 248 -94
263 0 17 27 29 68 29 25 0 27 14 7 50 -8 14 -14 36 -15 49 l0 24 -23 -21 c-13
-12 -26 -22 -29 -22 -6 0 -50 105 -79 192 -12 36 -11 39 16 68 16 16 26 32 23
35 -3 3 -19 -10 -36 -29 -33 -38 -33 -36 2 -136 9 -25 20 -54 25 -65 30 -70
32 -78 19 -86 -15 -10 -11 -15 -36 51 -11 30 -32 86 -46 124 -14 38 -26 75
-26 83 0 7 15 27 33 43 l32 29 -139 1 -138 0 27 -35z m74 -114 c8 -13 5 -33
-10 -72 -11 -30 -24 -66 -29 -80 -4 -14 -13 -36 -19 -48 -11 -19 -6 -28 39
-80 34 -39 48 -63 44 -75 -6 -16 -24 -23 -24 -8 0 4 -24 36 -54 71 l-53 64 24
61 c40 102 54 140 60 164 6 27 9 27 22 3z m50 -126 c5 -16 19 -54 30 -84 l20
-53 -27 -34 -27 -33 -28 32 c-16 17 -38 42 -49 54 l-20 21 33 82 c29 74 34 81
46 64 7 -10 17 -32 22 -49z"/>
<path d="M5010 4713 c0 -3 13 -34 30 -69 16 -34 32 -74 36 -88 9 -37 24 -32
24 8 0 42 44 90 91 100 58 11 109 7 109 -9 0 -11 -11 -15 -40 -15 -42 0 -88
-18 -107 -42 -6 -7 -14 -31 -17 -53 l-7 -40 15 39 c21 56 36 66 99 73 l57 6 0
-306 0 -305 -42 -36 -43 -36 143 1 c134 1 172 -6 172 -30 0 -3 -61 -5 -135 -4
-82 2 -135 -1 -135 -7 0 -6 62 -10 157 -10 l157 0 -30 32 c-16 18 -39 43 -52
57 -22 24 -22 24 -20 330 l3 306 26 3 c14 2 45 -4 69 -12 43 -15 43 -15 23 5
-13 13 -39 22 -77 26 l-57 6 3 -336 3 -336 -23 21 -22 22 2 325 3 326 60 0
c76 0 109 -20 138 -83 15 -35 22 -42 25 -28 2 10 22 52 43 93 l40 73 -361 0
c-198 0 -360 -3 -360 -7z"/>
<path d="M5813 4684 l37 -35 0 -237 c1 -331 19 -406 108 -451 79 -40 253 -38
314 3 18 11 41 37 52 56 20 33 21 56 26 324 l5 290 53 43 53 43 -128 0 -128 0
49 -42 49 -42 -5 -277 c-4 -252 -6 -280 -24 -310 -50 -86 -210 -92 -272 -11
l-27 35 -3 280 -3 280 42 44 43 43 -139 0 -140 0 38 -36z"/>
<path d="M7368 4682 l42 -37 0 -132 0 -133 -29 0 c-22 0 -38 -10 -60 -37 -35
-42 -42 -66 -11 -38 26 24 100 33 100 12 0 -16 -20 -27 -48 -27 -21 0 -48 -17
-41 -25 3 -3 22 2 42 10 20 8 39 15 42 15 3 0 5 -62 5 -139 l0 -138 -40 -27
c-22 -14 -40 -28 -40 -31 0 -3 149 -5 332 -5 l332 0 -26 28 c-39 42 -66 86
-74 118 -11 48 -15 48 -48 -2 -44 -69 -93 -94 -183 -94 l-73 0 0 145 0 144 58
4 57 3 -67 2 -68 2 0 -150 c0 -143 -1 -150 -20 -150 -19 0 -20 7 -20 165 l0
165 85 0 84 0 31 -45 c17 -25 33 -45 35 -45 3 0 5 57 5 128 l0 127 -21 -35
c-40 -67 -58 -80 -111 -80 l-49 0 3 118 3 117 69 3 c52 2 78 -2 110 -17 l41
-20 -30 24 c-33 27 -85 38 -160 33 l-50 -3 -3 -128 c-2 -115 -4 -128 -20 -125
-15 3 -17 19 -17 143 l0 140 77 3 c125 5 189 -22 226 -95 l18 -35 19 44 c11
24 35 64 53 91 l34 47 -319 0 -318 -1 43 -37z"/>
<path d="M8180 4692 c-30 -14 -56 -27 -58 -28 -2 -1 2 -20 9 -42 14 -50 6 -99
-26 -146 -29 -43 -21 -44 44 -11 57 28 85 64 102 126 12 43 6 113 -9 123 -4 2
-32 -8 -62 -22z"/>
<path d="M9423 4682 l37 -38 0 -147 c0 -142 -1 -147 -21 -147 -25 0 -57 -16
-86 -43 -33 -30 -28 -38 13 -21 43 18 89 15 89 -6 0 -10 -14 -17 -42 -21 -43
-5 -61 -14 -51 -25 4 -3 15 -1 26 5 12 6 32 11 46 11 l26 0 0 -117 0 -117 -42
-38 -43 -37 146 -1 c118 0 149 -3 159 -15 7 -8 9 -15 4 -16 -5 0 -69 0 -143 0
-89 0 -131 -3 -124 -10 6 -6 69 -8 158 -7 l148 3 -47 54 -46 55 0 128 0 128
99 0 c130 0 212 24 262 77 51 54 74 152 49 208 -7 15 -8 8 -6 -25 13 -168 -93
-249 -326 -250 l-88 0 0 -143 c0 -101 4 -147 13 -156 6 -8 -3 -3 -20 9 l-33
24 0 141 0 142 113 6 c174 9 246 42 287 132 27 59 25 101 -7 165 -52 102 -142
130 -419 130 l-168 0 37 -38z m362 -48 c46 -22 67 -58 72 -124 7 -94 -64 -160
-174 -160 l-53 0 0 130 0 130 54 0 c29 0 73 -7 97 -15 41 -15 43 -15 28 1 -12
11 -42 18 -103 21 l-86 6 0 -137 c0 -129 -1 -136 -20 -136 -19 0 -20 7 -20
156 l0 157 83 -5 c54 -3 96 -11 122 -24z"/>
<path d="M10144 4678 l46 -41 0 -124 c0 -90 -3 -125 -12 -127 -54 -14 -74 -25
-91 -48 -26 -34 -19 -43 19 -23 38 20 84 20 84 0 0 -9 -14 -17 -40 -21 -22 -4
-45 -13 -51 -20 -15 -18 1 -18 37 1 53 28 54 26 54 -120 l0 -134 -45 -31 c-25
-17 -45 -33 -45 -35 0 -3 151 -5 336 -5 l336 0 -34 33 c-31 30 -49 61 -78 132
-9 21 -14 25 -18 15 -10 -31 -72 -98 -106 -114 -21 -10 -60 -16 -105 -16 l-71
0 0 145 0 144 63 4 62 3 -67 2 -68 2 0 -150 c0 -143 -1 -150 -20 -150 -19 0
-20 7 -20 165 l0 165 78 0 77 0 37 -42 38 -43 0 118 c0 64 -2 117 -4 117 -1 0
-17 -22 -34 -50 l-31 -50 -56 0 -56 0 3 118 3 117 69 3 c52 2 78 -2 108 -17
38 -19 39 -19 22 0 -25 27 -79 41 -149 37 l-60 -3 -5 -125 c-4 -109 -7 -125
-22 -128 -17 -3 -18 9 -18 142 l0 146 83 0 c50 -1 101 -8 132 -18 43 -15 54
-24 77 -66 l26 -50 15 36 c8 20 31 61 51 92 l36 56 -316 0 -315 0 45 -42z"/>
<path d="M11160 4690 c11 -16 25 -32 30 -35 5 -3 -5 -43 -22 -88 -17 -45 -36
-96 -42 -113 l-12 -32 -28 25 c-16 13 -31 21 -34 18 -4 -3 8 -17 25 -31 20
-15 30 -30 26 -40 -4 -12 -12 -10 -40 12 -19 14 -35 24 -37 23 -6 -10 -46 -81
-46 -83 0 -2 20 -11 44 -20 43 -17 44 -18 35 -49 -10 -36 -12 -42 -60 -145
-34 -75 -83 -136 -132 -166 -28 -17 -30 -17 -54 6 -14 12 -43 50 -64 83 -21
33 -39 54 -39 47 0 -16 41 -81 80 -125 38 -44 32 -67 -19 -67 -20 0 -170 0
-334 0 -202 0 -296 -3 -292 -10 4 -6 121 -10 334 -10 l329 0 16 25 c16 25 18
25 156 25 132 0 162 6 126 27 -20 12 -56 75 -56 99 0 21 54 191 64 201 18 18
35 -33 17 -53 -10 -11 -41 -134 -41 -164 0 -26 38 -102 56 -113 8 -4 14 -13
14 -20 0 -9 -37 -11 -145 -9 -97 2 -145 0 -145 -7 0 -7 55 -11 160 -11 88 0
160 3 160 6 0 3 -16 26 -35 51 -40 52 -50 94 -40 159 7 47 33 114 45 114 3 0
26 -28 50 -62 l43 -62 16 25 c23 35 92 109 102 109 17 0 9 -37 -12 -56 -31
-28 -82 -94 -77 -99 3 -3 26 22 52 56 26 34 51 57 56 53 10 -10 60 -152 60
-168 0 -6 -16 -22 -35 -36 -19 -14 -35 -28 -35 -32 0 -5 66 -8 146 -8 110 0
143 3 138 12 -4 7 7 2 24 -11 18 -12 30 -26 28 -30 -3 -4 -70 -5 -150 -4 -89
2 -147 -1 -151 -7 -4 -7 56 -10 172 -10 l178 0 -68 63 c-37 34 -67 66 -67 70
0 5 -6 23 -14 40 -8 18 -30 74 -49 126 l-36 94 63 -7 63 -6 -28 57 c-16 32
-29 66 -29 76 0 9 -4 17 -10 17 -12 0 -13 -15 -1 -38 5 -9 15 -30 22 -47 7
-16 15 -33 17 -37 2 -5 -24 -8 -57 -8 l-61 0 14 -32 c8 -18 22 -53 31 -78 9
-25 23 -60 31 -78 8 -18 14 -39 14 -46 0 -7 12 -31 26 -52 l26 -38 -33 26
c-21 16 -41 44 -52 74 -9 27 -21 58 -26 69 -5 11 -12 29 -14 40 -3 11 -15 46
-27 78 -12 32 -19 61 -15 65 4 4 28 7 54 7 l47 0 -26 62 -25 62 -22 -21 c-13
-12 -25 -20 -27 -17 -2 2 -16 38 -31 79 -15 41 -33 91 -40 110 -13 33 -12 37
11 61 13 14 24 31 24 37 0 7 -14 -3 -31 -23 l-32 -36 16 -47 c9 -26 28 -80 43
-120 19 -53 24 -76 16 -84 -8 -8 -13 -6 -18 8 -3 10 -22 60 -41 109 -19 50
-40 103 -45 118 -10 25 -7 32 23 63 l33 34 -138 0 -137 0 21 -30z m90 -133 c0
-12 -16 -64 -36 -115 l-37 -93 25 -27 c48 -52 70 -91 60 -107 -7 -13 -19 -1
-63 57 -56 76 -57 80 -34 138 7 19 25 68 40 108 26 69 45 86 45 39z m47 -117
c8 -19 17 -42 18 -50 2 -8 10 -31 18 -50 15 -34 15 -36 -17 -68 l-33 -33 -41
56 c-46 61 -47 75 -10 148 10 20 16 37 13 37 -3 0 0 10 6 22 l12 23 10 -25 c5
-14 16 -41 24 -60z"/>
<path d="M12618 4677 l42 -43 0 -308 0 -308 -42 -39 -43 -38 313 -1 c208 0
312 3 312 10 0 6 -6 13 -13 16 -12 4 -70 118 -92 179 -7 18 -8 17 -17 -10 -31
-102 -72 -134 -183 -142 l-75 -6 0 320 0 319 30 29 c16 16 28 31 25 34 -3 2
-19 -8 -35 -24 l-30 -29 0 -323 c0 -280 -2 -323 -15 -323 -13 0 -15 43 -15
329 l0 329 40 36 40 36 -142 0 -142 0 42 -43z"/>
<path d="M2640 4684 c-11 -27 -13 -51 -5 -42 8 8 25 68 19 68 -2 0 -9 -12 -14
-26z"/>
<path d="M8296 4667 c12 -92 -46 -189 -142 -236 -24 -12 -44 -27 -44 -32 0
-14 93 36 128 68 16 15 37 43 47 62 21 42 30 128 16 161 -9 21 -10 17 -5 -23z"/>
<path d="M5734 4667 c-27 -45 -63 -129 -63 -147 0 -8 17 20 38 62 21 42 43 84
50 92 7 8 8 17 3 20 -4 3 -17 -9 -28 -27z"/>
<path d="M6032 4657 l-32 -33 0 -246 c0 -135 3 -259 6 -276 3 -17 19 -45 36
-64 l29 -33 -23 33 c-22 33 -23 40 -26 309 l-4 275 33 34 c18 19 28 34 23 34
-6 0 -24 -15 -42 -33z"/>
<path d="M7975 4677 c-22 -24 -85 -135 -85 -148 0 -8 15 12 33 43 18 31 41 66
51 77 10 11 16 24 15 29 -3 6 -8 5 -14 -1z"/>
<path d="M8896 4599 c-26 -51 -45 -97 -43 -103 2 -6 27 35 56 92 28 56 47 102
42 102 -4 0 -29 -41 -55 -91z"/>
<path d="M10727 4643 c-39 -55 -67 -106 -67 -125 0 -7 12 10 26 37 15 28 40
67 57 88 16 21 27 40 24 43 -2 3 -20 -17 -40 -43z"/>
<path d="M6433 4650 l-42 -31 -3 -292 c-3 -286 -3 -293 -26 -330 -27 -43 -79
-85 -113 -93 -98 -21 -226 -11 -277 23 -13 8 -26 12 -29 10 -2 -3 20 -17 51
-31 47 -22 68 -26 151 -26 108 0 148 14 201 72 51 55 58 96 64 395 l5 271 39
31 c50 40 33 40 -21 1z"/>
<path d="M13510 4676 c0 -8 52 -56 73 -67 37 -21 16 11 -28 41 -25 17 -45 29
-45 26z"/>
<path d="M4013 4646 l-28 -24 -3 -356 c-3 -326 -5 -356 -20 -357 -9 0 -34 -1
-55 -1 -20 0 -40 -4 -43 -9 -3 -5 24 -9 60 -9 l66 0 0 340 c0 379 3 399 59
418 35 12 40 22 12 22 -11 0 -33 -11 -48 -24z"/>
<path d="M8553 4615 c-32 -32 -35 -40 -30 -76 3 -24 15 -50 31 -66 33 -33 34
-22 1 21 -14 18 -25 42 -25 52 0 44 61 94 115 94 28 0 79 -23 108 -48 9 -8 20
-13 23 -9 8 8 -42 51 -69 59 -12 3 -44 6 -70 7 -43 1 -53 -3 -84 -34z"/>
<path d="M14130 4647 c0 -12 62 -69 68 -63 3 3 3 7 1 9 -2 1 -19 15 -37 31
-17 17 -32 26 -32 23z"/>
<path d="M10001 4606 c13 -22 25 -34 27 -27 2 7 -8 25 -23 40 l-27 26 23 -39z"/>
<path d="M2618 4601 c-5 -18 -8 -43 -8 -55 1 -19 2 -19 11 -3 6 9 9 34 7 55
l-3 37 -7 -34z"/>
<path d="M13610 4612 c0 -10 29 -40 68 -69 154 -119 267 -201 270 -198 2 2 0
24 -3 48 -6 36 -10 44 -23 40 -10 -4 -13 -2 -8 5 4 7 2 10 -7 7 -7 -3 -19 5
-26 19 -19 35 -86 52 -74 19 7 -17 6 -17 -11 -1 -9 10 -15 22 -12 27 3 5 -3 7
-15 4 -27 -7 -37 9 -33 54 2 29 0 33 -14 28 -31 -12 -85 -18 -80 -9 3 5 -3 17
-14 27 -17 16 -18 16 -18 -1z"/>
<path d="M13904 4566 c11 -30 22 -48 24 -41 3 12 -34 95 -42 95 -2 0 6 -24 18
-54z"/>
<path d="M12445 4590 c26 -86 4 -165 -60 -216 -16 -13 -36 -29 -43 -35 -7 -6
-25 -14 -40 -18 -30 -9 -31 -29 -6 -66 14 -19 14 -18 8 10 -5 28 -1 33 47 65
29 19 67 52 83 73 28 35 31 45 31 112 0 50 -4 78 -14 87 -12 11 -13 9 -6 -12z"/>
<path d="M7188 4534 c4 -65 2 -72 -30 -118 -23 -34 -50 -58 -87 -78 -30 -16
-56 -30 -58 -32 -7 -7 53 -134 91 -191 22 -33 70 -90 107 -126 l68 -67 -57
-21 c-83 -31 -165 -74 -170 -90 -3 -10 4 -8 24 6 33 23 119 64 179 84 58 19
60 24 21 48 -78 49 -196 204 -232 305 -16 44 -17 42 46 75 95 51 143 161 107
245 -12 27 -12 23 -9 -40z"/>
<path d="M2296 4573 c-6 -14 -5 -15 5 -6 7 7 10 15 7 18 -3 3 -9 -2 -12 -12z"/>
<path d="M14202 4555 c17 -48 48 -84 48 -55 0 6 -3 10 -8 10 -4 0 -15 12 -25
28 -10 15 -17 23 -15 17z"/>
<path d="M2603 4480 c0 -25 2 -35 4 -22 2 12 2 32 0 45 -2 12 -4 2 -4 -23z"/>
<path d="M13910 4491 c0 -6 4 -13 10 -16 6 -3 7 1 4 9 -7 18 -14 21 -14 7z"/>
<path d="M13943 4469 c4 -19 10 -54 13 -79 8 -51 11 -54 269 -284 83 -74 151
-130 153 -126 2 5 20 -10 40 -33 67 -75 92 -91 92 -59 1 15 2 15 12 -2 9 -17
13 -13 35 35 62 134 69 228 19 261 -8 6 -8 8 0 8 7 0 9 11 6 25 -2 15 0 25 7
25 7 0 9 5 6 10 -4 6 -10 8 -15 5 -5 -3 -11 4 -15 15 -3 11 -12 20 -18 20 -7
0 -6 4 3 10 8 5 10 10 3 10 -6 0 -9 8 -6 19 3 10 0 22 -6 25 -6 4 -11 16 -11
27 0 21 -42 69 -60 69 -5 0 -10 -22 -10 -49 0 -46 -17 -81 -39 -81 -12 0 -38
32 -45 56 -3 11 -20 30 -37 43 -20 15 -28 28 -24 40 3 10 -1 24 -10 31 -10 8
-15 9 -15 1 0 -6 -9 -11 -21 -11 -11 0 -19 -3 -17 -7 22 -43 38 -86 34 -90 -3
-3 -14 14 -25 38 -21 45 -44 79 -54 79 -3 0 1 -12 8 -27 9 -17 11 -29 5 -31
-17 -6 -11 -22 9 -22 23 0 31 -17 24 -53 -6 -31 -33 -36 -53 -11 -9 10 -24 14
-46 11 -25 -4 -34 0 -37 12 -3 9 -6 -2 -7 -24 -2 -25 -4 -32 -7 -17 -3 13 -12
22 -23 22 -10 0 -25 11 -34 24 -11 17 -23 24 -37 21 -17 -3 -20 0 -16 16 4 15
2 19 -9 15 -15 -6 -39 29 -29 44 3 5 0 12 -6 16 -8 5 -10 -3 -6 -27z m394
-291 c-3 -8 -6 -5 -6 6 -1 11 2 17 5 13 3 -3 4 -12 1 -19z"/>
<path d="M7800 4346 c0 -84 4 -136 10 -136 6 0 10 50 10 129 0 76 -4 132 -10
136 -6 4 -10 -42 -10 -129z"/>
<path d="M10584 4345 c0 -77 2 -107 3 -67 2 40 2 103 0 140 -2 37 -3 4 -3 -73z"/>
<path d="M3024 4421 c-40 -25 -51 -41 -26 -41 10 0 31 14 47 30 33 34 24 39
-21 11z"/>
<path d="M4851 4407 c-1 -10 5 -30 13 -45 7 -15 17 -37 20 -49 7 -22 5 -23
-48 -23 l-55 0 9 -27 c5 -16 18 -53 30 -83 11 -30 30 -80 40 -110 15 -41 33
-68 75 -106 30 -28 55 -53 55 -55 0 -2 -70 -3 -155 -1 -98 1 -155 -2 -155 -8
0 -6 66 -10 178 -10 l177 1 -30 27 c-17 15 -48 42 -69 60 -30 26 -45 52 -68
115 -16 45 -35 96 -42 112 -8 17 -17 41 -21 54 -7 24 -7 24 53 18 55 -6 61 -5
55 11 -3 9 -10 22 -14 27 -4 6 -17 33 -28 60 -11 28 -20 42 -20 32z"/>
<path d="M2830 4335 c-16 -9 -19 -14 -9 -15 8 0 24 7 35 15 24 18 7 19 -26 0z"/>
<path d="M2206 4323 c-8 -28 -25 -170 -31 -270 -5 -69 -3 -93 6 -93 16 0 170
151 163 161 -2 5 -11 6 -19 2 -9 -3 -21 0 -29 6 -7 6 -20 9 -28 6 -21 -8 -53
24 -39 38 6 6 11 20 11 32 0 16 -2 17 -10 5 -9 -15 -9 -16 -25 35 -2 8 1 14 7
12 6 -1 12 14 14 35 3 40 -11 61 -20 31z m41 -213 c19 -29 -3 -75 -31 -64 -16
6 -18 52 -3 69 16 19 20 18 34 -5z"/>
<path d="M8420 4332 c0 -14 32 -37 75 -54 37 -15 76 -26 208 -59 27 -7 64 -23
83 -35 19 -13 34 -20 34 -16 0 11 -48 52 -60 52 -5 0 -38 9 -72 19 -35 11 -97
29 -138 40 -41 12 -87 30 -102 41 -16 12 -28 17 -28 12z"/>
<path d="M13600 4330 c0 -5 7 -10 16 -10 8 0 12 5 9 10 -3 6 -10 10 -16 10 -5
0 -9 -4 -9 -10z"/>
<path d="M2710 4320 c0 -5 -17 -10 -39 -10 -45 0 -96 -31 -162 -98 -43 -44
-123 -117 -251 -228 -31 -27 -55 -54 -53 -61 2 -6 -3 -14 -11 -17 -9 -3 -40
-25 -70 -48 l-54 -43 22 -17 23 -18 -25 0 -25 -1 28 -15 c51 -28 33 -37 -65
-32 -50 3 -108 3 -130 1 l-38 -6 0 -103 0 -104 1683 0 c926 0 3824 3 6440 7
l4757 6 0 104 0 103 -52 1 c-29 1 -127 3 -218 6 -91 3 -174 4 -185 3 -63 -4
-11594 -14 -11614 -10 -22 5 -22 7 -8 22 15 14 15 17 2 28 -9 7 -29 10 -48 7
-20 -3 -40 0 -51 9 -17 12 -17 17 -6 44 8 20 19 30 34 30 21 0 71 29 52 30 -6
0 -1 6 10 14 10 8 28 13 39 10 28 -6 53 12 38 27 -6 6 -9 18 -6 25 6 16 2 17
-29 5 -56 -20 -76 -21 -74 -4 0 10 -12 24 -31 33 l-33 15 30 13 c25 11 30 20
30 48 0 19 5 34 10 34 7 0 7 7 2 18 -16 34 -4 77 21 77 7 0 17 15 23 34 7 20
14 29 18 22 12 -19 21 -12 22 19 1 17 0 30 -2 30 -2 0 -4 -4 -4 -10z"/>
<path d="M13660 4319 c0 -5 37 -9 82 -9 45 0 79 2 77 4 -9 9 -159 14 -159 5z"/>
<path d="M2730 4310 c0 -5 9 -10 19 -10 11 0 23 5 26 10 4 6 -5 10 -19 10 -14
0 -26 -4 -26 -10z"/>
<path d="M8965 4265 c15 -23 20 -48 20 -110 0 -92 -16 -126 -86 -190 -59 -53
-101 -68 -194 -69 -88 -1 -119 4 -194 29 -60 19 -162 17 -169 -4 -4 -11 0 -12
14 -6 51 22 91 18 212 -21 65 -21 191 -18 252 6 60 24 134 89 162 143 36 72
26 203 -20 239 -13 10 -12 7 3 -17z"/>
<path d="M12053 4253 c-22 -4 -23 -8 -23 -126 l1 -122 39 -45 c22 -24 37 -46
35 -49 -3 -2 -63 -3 -135 -2 -85 1 -130 -2 -130 -9 0 -6 54 -10 156 -10 l156
0 -51 57 -52 58 3 114 3 114 40 13 c37 11 38 12 10 12 -16 -1 -40 -3 -52 -5z"/>
<path d="M12310 4221 c0 -36 139 -224 196 -264 44 -31 44 -41 -1 -49 -31 -5
-195 -88 -195 -99 0 -5 15 0 33 11 50 30 117 60 174 78 29 9 53 20 53 23 0 4
-11 14 -24 22 -67 44 -216 227 -216 265 0 6 -4 14 -10 17 -5 3 -10 2 -10 -4z"/>
<path d="M2640 4210 c0 -5 5 -10 11 -10 5 0 7 5 4 10 -3 6 -8 10 -11 10 -2 0
-4 -4 -4 -10z"/>
<path d="M2360 4171 c0 -11 -4 -23 -10 -26 -5 -3 -10 -1 -10 6 0 7 -3 9 -6 6
-8 -8 14 -37 27 -37 5 0 9 7 9 15 0 8 5 14 11 13 20 -5 20 17 -1 30 -17 11
-20 10 -20 -7z"/>
<path d="M4614 4167 c-36 -39 -77 -97 -68 -96 11 1 107 119 97 119 -4 0 -17
-10 -29 -23z"/>
<path d="M2260 4171 c0 -5 5 -13 10 -16 6 -3 10 -2 10 4 0 5 -4 13 -10 16 -5
3 -10 2 -10 -4z"/>
<path d="M8485 4113 c22 -53 42 -80 65 -93 15 -8 11 1 -15 35 -19 26 -38 57
-41 71 -3 13 -10 24 -15 24 -5 0 -2 -17 6 -37z"/>
<path d="M14123 4143 c-7 -3 -13 -12 -13 -20 0 -9 6 -13 14 -10 9 4 17 -2 21
-14 5 -15 10 -17 20 -9 18 15 27 -2 19 -33 -4 -17 -15 -27 -35 -31 -20 -4 -30
-13 -35 -31 -3 -14 -10 -22 -15 -19 -5 3 -6 -2 -3 -10 5 -12 -1 -16 -20 -16
-15 0 -29 7 -33 16 -5 13 -7 13 -14 2 -8 -11 -10 -11 -18 1 -6 9 -11 10 -15 2
-4 -6 -19 -12 -34 -12 -21 -1 -18 -3 13 -10 56 -11 337 -11 355 1 17 11 11 17
-175 179 -11 10 -26 16 -32 14z m131 -156 c13 -24 14 -27 2 -13 -14 17 -16 18
-16 3 0 -12 -8 -17 -27 -17 -14 0 -24 3 -20 6 3 4 -1 13 -9 21 -16 16 -49 10
-39 -7 3 -5 2 -10 -4 -10 -18 0 -24 23 -9 34 8 6 35 12 60 13 41 1 46 -2 62
-30z"/>
<path d="M13158 4093 c10 -21 34 -64 55 -97 59 -91 68 -88 -296 -87 -202 1
-308 -2 -312 -9 -4 -7 94 -10 311 -10 290 0 318 1 330 18 19 24 17 36 -11 78
-13 20 -36 60 -51 90 -30 60 -53 75 -26 17z"/>
<path d="M7942 4082 c10 -20 38 -60 63 -89 43 -49 51 -82 21 -83 -6 -1 -156
-1 -334 -1 -203 0 -320 -3 -317 -9 4 -6 136 -10 334 -10 l328 0 12 26 c10 24
7 32 -44 99 -30 41 -55 78 -55 83 0 6 -6 12 -13 15 -10 4 -9 -5 5 -31z"/>
<path d="M2003 4052 c4 -36 3 -64 -3 -67 -6 -3 -10 -12 -10 -18 0 -8 3 -8 9 1
6 10 10 8 14 -10 4 -12 7 -32 7 -44 0 -11 6 -29 14 -39 13 -18 16 -17 70 29
l56 48 -1 66 c-1 61 -2 63 -8 25 -10 -58 -19 -63 -48 -28 -15 17 -23 22 -19
12 3 -11 2 -16 -4 -12 -6 3 -10 12 -10 19 0 20 -27 40 -35 26 -10 -16 -27 0
-22 21 3 10 0 22 -6 26 -7 4 -8 -13 -4 -55z m82 -153 c-6 -9 -35 -1 -35 10 0
4 3 11 7 14 8 9 34 -13 28 -24z"/>
<path d="M2850 4065 c-27 -20 -30 -25 -15 -25 11 0 28 12 38 25 22 30 21 30
-23 0z"/>
<path d="M1971 4043 c7 -10 15 -20 16 -22 2 -2 3 3 3 11 0 9 -7 19 -16 22 -15
6 -15 4 -3 -11z"/>
<path d="M2674 4023 c5 -11 1 -14 -12 -11 -12 3 -19 0 -19 -9 0 -9 7 -11 21
-7 22 6 86 35 86 38 0 1 -18 2 -41 3 -33 2 -40 -1 -35 -14z"/>
<path d="M2760 4020 c-8 -5 -12 -11 -9 -14 3 -3 14 1 25 9 21 16 8 20 -16 5z"/>
<path d="M14240 3920 c-20 -7 -16 -8 23 -9 40 -1 47 -4 47 -21 0 -33 -1 -35
-16 -32 -8 2 -14 -4 -14 -13 0 -9 -7 -18 -15 -21 -11 -5 -13 -10 -5 -19 12
-14 3 -25 -21 -25 -10 0 -21 -5 -25 -11 -5 -9 1 -10 22 -4 61 16 104 22 104
14 0 -5 8 -9 18 -9 14 0 15 2 2 10 -13 9 -13 10 0 10 8 0 35 10 60 21 l45 20
-25 21 c-22 18 -25 18 -28 4 -2 -9 -8 -16 -13 -16 -13 0 -11 14 3 28 10 10 7
18 -14 37 -22 20 -37 25 -75 24 -26 -1 -59 -5 -73 -9z m115 -20 c-3 -5 -12
-10 -18 -10 -7 0 -6 4 3 10 19 12 23 12 15 0z"/>
</g>
</svg>
